<?xml version="1.0" encoding="iso-8859-1"?>
<!-- Uploaded to: SVG Repo, www.svgrepo.com, Generator: SVG Repo Mixer Tools -->
<!DOCTYPE svg PUBLIC "-//W3C//DTD SVG 1.1//EN" "http://www.w3.org/Graphics/SVG/1.1/DTD/svg11.dtd">
<svg fill="#000000" height="800px" width="800px" version="1.1" id="Capa_1" xmlns="http://www.w3.org/2000/svg" xmlns:xlink="http://www.w3.org/1999/xlink" 
	 viewBox="0 0 59.463 59.463" xml:space="preserve">
<path d="M37.05,43.879l3.549,3.549c-3.797-0.24-7.226-1.349-9.909-2.539v7.55c0,0.828-0.672,1.5-1.5,1.5s-1.5-0.672-1.5-1.5v-7.55
	c-3.033,1.345-7.016,2.591-11.407,2.591c-9.637,0-14.049-5.913-14.232-6.164c-0.383-0.526-0.383-1.239,0-1.765
	c0.166-0.229,3.814-5.118,11.686-6.022C8.199,27.061,7.049,18.979,7,18.614c-0.063-0.464,0.095-0.931,0.426-1.262
	c0.331-0.332,0.805-0.485,1.262-0.426c0.095,0.013,0.744,0.108,1.748,0.337l4.714,4.714c-1.819-0.788-3.491-1.314-4.724-1.628
	c0.752,2.941,2.603,8.329,6.699,12.427c0.354,0.355,0.718,0.689,1.087,1.01c0.482,0.418,0.647,1.096,0.411,1.688
	c-0.235,0.592-0.787,0.964-1.459,0.944l-0.263-0.013c-0.205-0.011-0.409-0.021-0.618-0.021c-5.989,0-9.523,2.624-11,4.048
	c1.475,1.422,5.009,4.047,11,4.047c4.935,0,9.361-1.798,12.204-3.307c0.22-0.116,0.462-0.175,0.703-0.175
	c0.241,0,0.483,0.059,0.703,0.175C31.719,42.142,34.203,43.224,37.05,43.879z M58.877,58.877c-0.391,0.391-0.902,0.586-1.414,0.586
	c-0.512,0-1.023-0.195-1.414-0.586L0.586,3.414c-0.781-0.781-0.781-2.047,0-2.828c0.781-0.781,2.047-0.781,2.828,0l19.272,19.272
	c1.382-7.752,4.963-15.331,5.151-15.722c0.249-0.522,0.775-0.854,1.353-0.854s1.104,0.332,1.354,0.854
	c0.21,0.438,4.677,9.875,5.548,18.484c6.202-4.641,13.266-5.648,13.602-5.693c0.454-0.06,0.931,0.094,1.262,0.426
	c0.331,0.331,0.488,0.797,0.426,1.262c-0.049,0.364-1.197,8.443-6.734,14.911c7.948,0.886,12.448,5.667,12.654,5.891
	c0.53,0.574,0.53,1.459,0,2.034c-0.163,0.177-3.026,3.188-8.14,4.882l9.716,9.716C59.658,56.83,59.658,58.096,58.877,58.877z
	 M25.326,22.498l21.413,21.413c3.4-0.839,5.863-2.429,7.2-3.478c-1.883-1.479-5.995-4.048-11.84-4.048
	c-0.209,0-0.414,0.011-0.62,0.021l-0.262,0.013c-0.678,0.021-1.224-0.353-1.459-0.944c-0.236-0.593-0.071-1.271,0.411-1.688
	c0.369-0.32,0.732-0.654,1.085-1.009c4.098-4.096,5.948-9.482,6.7-12.423c-2.885,0.739-8.122,2.536-12.186,6.471
	c-0.438,0.424-1.084,0.541-1.64,0.3c-0.557-0.241-0.914-0.794-0.904-1.4l0.014-0.35c0-5.771-2.448-12.813-4.048-16.798
	C27.849,11.919,25.916,17.408,25.326,22.498z"/>
</svg>